<?xml version="1.0" encoding="utf-8"?>
<!-- Generator: Adobe Illustrator 23.0.1, SVG Export Plug-In . SVG Version: 6.00 Build 0)  -->
<svg version="1.1" id="Layer_1" xmlns="http://www.w3.org/2000/svg" xmlns:xlink="http://www.w3.org/1999/xlink" x="0px" y="0px"
	 viewBox="0 0 360 360" style="enable-background:new 0 0 360 360;" xml:space="preserve">
<style type="text/css">
	.st0{fill:#FFFFFF;}
</style>
<path class="st0" d="M191.27,349.02c-7.01,0-14.02,0-21.03,0c-0.95-0.19-1.89-0.44-2.85-0.57c-6.93-0.97-13.94-1.53-20.78-2.95
	C61.36,327.84,3.38,247.53,13.71,161.24c5.5-45.9,26.57-83.5,62.68-112.17c38.55-30.62,82.72-41.8,131.3-34.38
	c32.16,4.91,60.48,18.66,84.72,40.39c29.03,26.01,47.18,58.23,54.03,96.68c1.09,6.12,1.73,12.32,2.58,18.48c0,7.01,0,14.02,0,21.03
	c-0.19,0.85-0.48,1.68-0.55,2.54c-1.98,25.96-9.43,50.26-22.98,72.47c-26.71,43.75-65.28,70.66-115.77,80.17
	C203.63,347.59,197.43,348.18,191.27,349.02z M81.09,117.93c0,41.29,0,82.39,0,123.79c1.51,0,2.8,0,4.09,0
	c19.6,0,39.21,0.06,58.81-0.05c3.92-0.02,7.91-0.37,11.73-1.19c14.41-3.11,24.74-10.86,28.01-25.99c1.52-7.04,1.42-14.14-0.3-21.17
	c-2.42-9.94-7.7-17.07-18.46-18.84c-0.12-0.02-0.19-0.34-0.36-0.66c5.9-1.86,10.54-5.3,13.3-10.92c6.32-12.9,1.02-31.66-11.09-39.39
	c-6.8-4.34-14.35-5.71-22.25-5.72c-20.04-0.02-40.08-0.01-60.12,0C83.38,117.78,82.31,117.87,81.09,117.93z M257.93,211.43
	c-0.77,6-4.16,9.81-9.74,11.64c-5.63,1.84-11.38,2.23-17.15,0.8c-9.89-2.44-16.4-11.85-14.32-20.84c21.05,0,42.15,0,63.18,0
	c2.73-9.62-1.21-28.42-7.85-37.85c-7.24-10.27-17.62-14.69-29.74-15.63c-20.48-1.59-38.6,5.35-47.55,25.24
	c-5.47,12.16-6.82,24.86-3.31,37.83c4.17,15.41,13.88,25.59,29.45,29.64c9.2,2.4,18.59,2.67,28.01,1.13
	c7.34-1.2,14.26-3.45,20.11-8.21c7.46-6.08,10.55-14.08,10.4-23.75C272.05,211.43,265.07,211.43,257.93,211.43z M210.67,125.24
	c0,5.18,0,9.95,0,14.83c17.06,0,33.92,0,50.78,0c0-5.08,0-9.86,0-14.83C244.5,125.24,227.71,125.24,210.67,125.24z"/>
<path class="st0" d="M109.48,186.66c12.47,0,24.71-0.22,36.94,0.1c5.27,0.14,9.12,3.54,10.5,8.55c1.05,3.8,1.53,8.01,1.11,11.92
	c-0.87,8.1-5.71,12.2-13.9,12.31c-11.47,0.15-22.94,0.04-34.65,0.04C109.48,208.62,109.48,197.85,109.48,186.66z"/>
<path class="st0" d="M109.39,167.53c0-9.38,0-18.3,0-27.47c1.22-0.06,2.28-0.16,3.34-0.16c10.19-0.01,20.37-0.01,30.56,0
	c6.02,0.01,9.63,2.8,10.37,8.66c0.42,3.33,0.39,6.81-0.11,10.13c-0.93,6.16-3.99,8.69-10.31,8.8c-8.21,0.14-16.43,0.05-24.64,0.06
	C115.65,167.53,112.71,167.53,109.39,167.53z"/>
<path class="st0" d="M216.37,186.38c0-10.59,10.42-19.23,22.61-18.84c10.37,0.33,17.84,8.42,17.22,18.84
	C242.93,186.38,229.65,186.38,216.37,186.38z"/>
</svg>
