<?xml version="1.0" encoding="utf-8"?>
<!-- Generator: Adobe Illustrator 23.0.1, SVG Export Plug-In . SVG Version: 6.00 Build 0)  -->
<svg version="1.1" id="Layer_1" xmlns="http://www.w3.org/2000/svg" xmlns:xlink="http://www.w3.org/1999/xlink" x="0px" y="0px"
	 viewBox="0 0 360 360" style="enable-background:new 0 0 360 360;" xml:space="preserve">
<style type="text/css">
	.st0{fill:#FFFFFF;}
</style>
<g>
	<path class="st0" d="M180.19,349.47C86.8,349.7,8.56,273.23,10.57,176.06c1.87-90.43,76.36-167.1,172.76-165.5
		c91.04,1.52,168,76.53,166.11,173.17C347.66,274.59,273.52,349.25,180.19,349.47z M328.91,180.05
		C328.83,97.78,262.5,31.42,180.62,31.12C97.84,30.83,31.59,97.51,31.14,179.04c-0.46,83.12,66.41,149.3,147.75,149.84
		C262.17,329.43,328.82,262.24,328.91,180.05z"/>
	<path class="st0" d="M257.39,216.02c-14.45,13.62-28.77,27.11-43.27,40.77c-32.21-34.18-64.31-68.25-96.57-102.48
		c14.45-13.61,28.8-27.13,43.27-40.77C193.05,147.74,225.16,181.82,257.39,216.02z M236.49,213.65c-0.46-0.65-1.17-1.96-2.16-3.01
		c-7.94-8.49-15.93-16.94-23.9-25.4c-9.14-9.7-18.26-19.43-27.43-29.1c-4.02-4.24-4.91-4.22-9.13-0.29
		c-2.38,2.22-2.47,4.33-0.23,6.7c3.93,4.18,7.9,8.33,11.83,12.5c13.7,14.53,27.4,29.07,41.08,43.61c1.34,1.42,2.79,2.49,4.85,1.75
		C233.75,219.58,236.54,216.25,236.49,213.65z M168.37,142.19c-0.35-0.96-0.42-1.73-0.83-2.19c-1.92-2.12-3.83-4.26-5.96-6.15
		c-0.67-0.59-2.37-0.94-2.98-0.52c-1.8,1.26-3.58,2.76-4.77,4.57c-0.57,0.86-0.21,2.9,0.47,3.9c1.34,1.95,3.17,3.57,4.85,5.26
		c1.04,1.04,2.33,1.46,3.68,0.62c1.33-0.83,2.69-1.68,3.82-2.75C167.42,144.17,167.84,143.05,168.37,142.19z"/>
	<path class="st0" d="M111.87,206.4c3.71,3.83,7.24,7.45,10.74,11.1c1.18,1.23,2.39,2.46,3.43,3.8c1.53,1.98,1.27,4.67-0.45,6.32
		c-1.73,1.65-4.24,1.96-6.12,0.22c-3.56-3.29-6.88-6.84-10.29-10.3c-1.39-1.41-2.74-2.85-4.41-4.6c-1.12,1.34-2.16,2.57-3.41,4.07
		c1.92,1.99,3.99,4.12,6.04,6.27c2.46,2.57,4.93,5.13,7.34,7.75c2.05,2.23,2.05,5.09,0.09,7c-1.83,1.78-4.81,1.79-6.81-0.22
		c-4.34-4.36-8.57-8.83-12.85-13.25c-0.28-0.29-0.59-0.54-0.87-0.81c-3.92,3.06-3.2,8.55-0.39,11.45
		c7.73,7.95,15.39,15.96,23.07,23.95c2.09,2.17,4.15,4.37,6.25,6.52c4.2,4.29,8.75,4.32,13.11,0.11
		c12.17-11.71,24.33-23.42,36.68-35.31c2.94,3.09,5.89,6.19,8.65,9.09c-2.69,2.85-5.2,5.72-7.92,8.37
		c-9.76,9.49-19.6,18.9-29.41,28.35c-3.25,3.13-6.47,6.28-9.72,9.4c-3.51,3.37-7,3.38-10.39-0.1c-6.64-6.81-13.23-13.68-19.83-20.53
		c-9.77-10.14-19.54-20.28-29.31-30.42c-3.78-3.92-3.66-7.35,0.28-11.13c13.5-13,26.98-26.04,40.47-39.06
		c2.36-2.28,4.74-4.53,7.27-6.94c3.18,3.35,6.34,6.66,9.47,9.98c4.74,5.03,9.48,10.05,14.16,15.13c0.67,0.73,1.63,2.2,1.37,2.59
		c-0.77,1.15-1.96,2.26-3.23,2.76c-2.1,0.83-3.79-0.43-5.24-1.92c-4.2-4.32-8.39-8.64-12.59-12.96c-0.18-0.19-0.4-0.35-0.78-0.69
		c-1.06,1.23-2.07,2.41-3.29,3.83c0.88,0.97,1.94,2.17,3.05,3.32c3.32,3.46,6.63,6.92,9.99,10.34c1.58,1.62,2.17,3.54,1.5,5.63
		c-0.55,1.72-1.94,2.76-3.81,3c-1.95,0.25-3.41-0.62-4.7-1.98c-3.83-4.01-7.77-7.92-11.5-12.02c-1.42-1.56-2.37-1.73-3.63-0.01
		C113.41,205.13,112.71,205.61,111.87,206.4z"/>
	<path class="st0" d="M198.44,123.15c4.98,5.16,9.86,10.22,14.75,15.28c2.71,2.8,5.48,5.54,8.11,8.42c2.64,2.89,1.1,7.65-2.75,8.28
		c-1.06,0.17-2.63-0.39-3.39-1.17c-8.01-8.34-15.89-16.79-23.82-25.21c-2.76-2.94-5.55-5.85-7.87-8.31
		c3.75-4.05,7.26-8.14,11.08-11.91c8.37-8.27,16.9-16.39,25.36-24.57c2.01-1.94,4.04-3.87,6.07-5.79c3.17-3.01,6.96-3.05,10.01,0.09
		c8.58,8.83,17.09,17.73,25.63,26.59c7.83,8.12,15.65,16.25,23.5,24.35c4.04,4.17,4.06,7.37-0.12,11.4
		c-13.19,12.73-26.41,25.44-39.61,38.17c-1.17,1.13-2.29,2.31-3.54,3.58c-3.08-3.26-6.01-6.36-9.04-9.57
		c4.15-4,8.18-7.89,12.21-11.79c7.08-6.85,14.18-13.66,21.21-20.56c3.58-3.52,3.58-8.18,0.07-11.85
		c-9.8-10.22-19.64-20.41-29.49-30.59c-3.44-3.56-8.19-3.96-11.73-0.64c-8.8,8.28-17.44,16.74-26.14,25.14
		C198.79,122.64,198.69,122.83,198.44,123.15z"/>
	<path class="st0" d="M140.82,92.58c-14.38,13.55-28.66,27-43.11,40.62c-1.99-2.09-3.96-4.14-5.9-6.21
		c-3.18-3.39-6.5-6.66-9.49-10.22c-4.76-5.66-4.27-12.96,1.09-18.07c7.92-7.56,15.87-15.08,23.89-22.53
		c5.65-5.24,12.64-5.35,18.18,0.01c5.2,5.04,10.01,10.48,14.99,15.75C140.6,92.08,140.66,92.29,140.82,92.58z M116.49,83.39
		c-8.9,8.38-17.6,16.58-26.42,24.88c2.76,2.93,5.41,5.74,8.1,8.6c8.92-8.41,17.65-16.65,26.4-24.9
		C121.82,89.04,119.25,86.32,116.49,83.39z"/>
	<path class="st0" d="M219.78,262.67c14.45-13.63,28.66-27.03,43.09-40.65c0.74,2.28,1.44,4.37,2.09,6.47
		c4.76,15.2,9.5,30.4,14.26,45.59c0.8,2.56,0.48,4.87-1.49,6.79c-2.12,2.07-4.63,2.12-7.23,1.13
		c-13.87-5.29-27.72-10.62-41.58-15.92C226,264.96,223.07,263.89,219.78,262.67z M234.16,259.62c0.24,0.29,0.31,0.45,0.41,0.49
		c6.29,2.42,12.58,4.85,18.91,7.19c0.51,0.19,1.46-0.12,1.91-0.53c3.22-2.96,6.39-5.97,9.5-9.04c0.44-0.43,0.8-1.38,0.64-1.93
		c-1.97-6.51-4.05-12.99-6.22-19.88C250.76,243.96,242.46,251.79,234.16,259.62z"/>
	<path class="st0" d="M113.03,149.48c-3.74-3.96-7.35-7.77-11.1-11.74c14.43-13.6,28.78-27.14,43.26-40.79
		c3.69,3.9,7.33,7.76,11.09,11.74C141.88,122.27,127.55,135.78,113.03,149.48z"/>
	<path class="st0" d="M252,126.49c0,8.96-7.65,16.7-16.65,16.42c-9.28-0.29-16.22-7.06-16.22-16.55c0-9.57,7.76-16.36,16.47-16.34
		C244.55,110.04,252,117.5,252,126.49z M235.59,133.15c3.73-0.02,6.66-2.9,6.69-6.56c0.04-3.72-2.98-6.78-6.7-6.81
		c-3.83-0.02-6.81,2.91-6.79,6.69C228.82,130.29,231.75,133.17,235.59,133.15z"/>
</g>
</svg>
