<?xml version="1.0" encoding="utf-8"?>
<!-- Generator: Adobe Illustrator 23.0.1, SVG Export Plug-In . SVG Version: 6.00 Build 0)  -->
<svg version="1.1" id="Layer_1" xmlns="http://www.w3.org/2000/svg" xmlns:xlink="http://www.w3.org/1999/xlink" x="0px" y="0px"
	 viewBox="0 0 20 20" style="enable-background:new 0 0 20 20;" xml:space="preserve">
<style type="text/css">
	.st0{fill:#FFFFFF;}
</style>
<g>
	<path class="st0" d="M10.42,0c0.16,0.02,0.32,0.03,0.48,0.05c1.98,0.18,3.75,0.88,5.31,2.12c1.77,1.4,2.93,3.21,3.49,5.4
		c0.28,1.1,0.36,2.22,0.26,3.35c-0.21,2.19-1.04,4.11-2.5,5.74c-1.46,1.64-3.28,2.69-5.44,3.14c-0.91,0.19-1.84,0.26-2.77,0.18
		C7.06,19.79,5.13,19,3.47,17.56c-1.59-1.38-2.65-3.09-3.16-5.14c-0.27-1.09-0.36-2.19-0.26-3.31c0.24-2.59,1.32-4.76,3.23-6.52
		C4.7,1.29,6.38,0.47,8.3,0.15c0.4-0.07,0.8-0.09,1.21-0.14C9.53,0.01,9.56,0,9.58,0C9.86,0,10.14,0,10.42,0z M9.85,17.96
		c4.4,0.08,7.99-3.4,8.11-7.73c0.13-4.46-3.4-8.1-7.77-8.19c-4.45-0.1-8.06,3.43-8.14,7.8C1.96,14.25,5.46,17.89,9.85,17.96z"/>
	<path class="st0" d="M15.44,8.67c-0.17,0-0.34,0-0.5,0c-0.68,0-1.36,0-2.04,0c-0.1,0-0.16-0.03-0.21-0.12
		C11.67,6.67,9.1,6.37,7.7,7.98c-0.79,0.91-0.98,1.97-0.56,3.09c0.41,1.11,1.24,1.76,2.41,1.95c1.32,0.22,2.62-0.49,3.21-1.7
		c0.03-0.06,0.05-0.11,0.14-0.11c0.83,0,1.67,0,2.5,0c0.02,0,0.04,0,0.06,0.01c-0.36,1.99-2.32,4.3-5.33,4.38
		c-3.04,0.08-5.56-2.28-5.74-5.27C4.21,7.24,6.54,4.62,9.57,4.4C12.74,4.17,14.97,6.46,15.44,8.67z"/>
</g>
</svg>
