<?xml version="1.0" encoding="utf-8"?>
<!-- Generator: Adobe Illustrator 23.0.1, SVG Export Plug-In . SVG Version: 6.00 Build 0)  -->
<svg version="1.1" id="Layer_1" xmlns="http://www.w3.org/2000/svg" xmlns:xlink="http://www.w3.org/1999/xlink" x="0px" y="0px"
	 viewBox="0 0 360 360" style="enable-background:new 0 0 360 360;" xml:space="preserve">
<g>
	<path d="M15.04,89.69c29.35,27.3,58.7,54.61,88.04,81.91c4.24,3.95,8.48,7.91,13.01,12.13c-33.3,32.07-66.47,64-99.74,96.04
		c-0.55-1-0.94-1.69-1.32-2.38C15.04,214.83,15.04,152.26,15.04,89.69z"/>
	<path d="M334.08,65.94c-51.32,49.44-102.38,98.63-153.66,148.03c-52.2-48.7-104.27-97.27-156.46-145.96
		c3.61-3.19,7.59-4.88,12.06-5.38c1.92-0.22,3.86-0.24,5.79-0.24c92.54-0.01,185.08,0,277.62-0.02
		C324.43,62.36,329.28,62.75,334.08,65.94z"/>
	<path d="M31.36,295.59c33.5-32.29,67-64.59,100.75-97.12c1.02,0.91,1.95,1.73,2.86,2.58c12.19,11.36,24.38,22.72,36.58,34.07
		c6.47,6.02,11.65,6,17.97-0.06c13.1-12.58,26.19-25.18,39.61-38.09c34.78,32.46,69.46,64.84,104.84,97.85
		c-3.39,0.99-6.13,1.97-8.97,2.55c-1.87,0.38-3.85,0.25-5.79,0.25c-92.46,0.01-184.91,0.02-277.37-0.03
		c-3.48,0-6.95-0.57-10.42-0.88C31.4,296.33,31.38,295.96,31.36,295.59z"/>
	<path d="M344.96,85.23c0,63.76,0,126.78,0,190.57c-33.68-31.45-66.93-62.49-100.45-93.78C277.93,149.82,311.22,117.74,344.96,85.23
		z"/>
</g>
</svg>
