<?xml version="1.0" encoding="utf-8"?>
<!-- Generator: Adobe Illustrator 23.0.1, SVG Export Plug-In . SVG Version: 6.00 Build 0)  -->
<svg version="1.1" id="Layer_1" xmlns="http://www.w3.org/2000/svg" xmlns:xlink="http://www.w3.org/1999/xlink" x="0px" y="0px"
	 viewBox="0 0 360 360" style="enable-background:new 0 0 360 360;" xml:space="preserve">
<style type="text/css">
	.st0{fill:#222222;}
</style>
<path class="st0" d="M190.55,348.94c-7.04,0-14.08,0-21.12,0c-0.95-0.19-1.9-0.44-2.86-0.57c-6.96-0.98-14-1.54-20.86-2.96
	C60.13,327.68,1.86,246.95,12.28,160.42c5.55-46.08,26.68-83.83,62.93-112.62c38.7-30.74,83.05-41.96,131.82-34.52
	c32.29,4.93,60.72,18.74,85.06,40.55c29.14,26.11,47.37,58.46,54.24,97.07c1.09,6.15,1.74,12.37,2.59,18.56c0,7.04,0,14.08,0,21.12
	c-0.19,0.85-0.48,1.69-0.55,2.55c-1.99,26.06-9.47,50.46-23.07,72.76c-26.81,43.93-65.54,70.94-116.23,80.49
	C202.96,347.51,196.73,348.09,190.55,348.94z M153.79,185.9c0,32.81,0,65.19,0,97.78c13.68,0,27.03,0,40.78,0
	c0-32.62,0-65.09,0-97.86c9.36,0,18.33,0,27.45,0c1.19-11.58,2.34-22.87,3.53-34.53c-10.54,0-20.62,0-30.91,0
	c0-7.65-0.26-15,0.09-22.31c0.23-4.74,3.46-7.26,8.51-7.39c5.27-0.13,10.55-0.04,15.83-0.04c1.92,0,3.83,0,5.66,0
	c0-11.52,0-22.44,0-33.44c-11.91,0-23.58-0.61-35.16,0.14c-19.71,1.28-32.41,13.13-35.02,32.67c-1.16,8.66-0.6,17.55-0.82,26.33
	c-0.03,1.26,0,2.53,0,4.2c-6.7,0-12.89,0-19.1,0c0,11.68,0,22.95,0,34.44C140.95,185.9,147.08,185.9,153.79,185.9z"/>
</svg>
