<?xml version="1.0" encoding="utf-8"?>
<!-- Generator: Adobe Illustrator 23.0.1, SVG Export Plug-In . SVG Version: 6.00 Build 0)  -->
<svg version="1.1" id="Layer_1" xmlns="http://www.w3.org/2000/svg" xmlns:xlink="http://www.w3.org/1999/xlink" x="0px" y="0px"
	 viewBox="0 0 360 360" style="enable-background:new 0 0 360 360;" xml:space="preserve">
<style type="text/css">
	.st0{fill:#222222;}
</style>
<path class="st0" d="M348.31,193.14c-0.62,5.28-1.14,10.57-1.87,15.83c-3.26,23.67-11.37,45.59-24.12,65.75
	c-15.78,24.94-36.63,44.59-62.71,58.43c-7.96,4.22-16.39,7.62-24.8,10.88c-7.3,2.83-12.45-1.11-12.45-9.11
	c-0.01-14.4,0.14-28.8,0.18-43.21c0.02-8.03-0.86-15.94-4.57-23.2c-1.66-3.24-3.92-6.18-5.98-9.38c5.86-1.05,11.89-1.86,17.8-3.23
	c16.64-3.85,31.47-10.9,42.28-24.78c7.84-10.07,11.94-21.72,13.94-34.12c1.65-10.25,2.22-20.59,0.87-30.96
	c-1.59-12.22-6.35-23.06-14.27-32.45c-1.7-2.02-1.87-3.65-1.14-6.09c4.04-13.49,2.53-26.75-2.39-39.7
	c-0.35-0.92-2.49-1.86-3.62-1.68c-5.35,0.85-10.99,1.27-15.87,3.36c-8.37,3.59-16.21,8.38-24.38,12.47
	c-1.57,0.78-3.74,1.23-5.39,0.83c-26.15-6.38-52.24-6.33-78.38,0.04c-1.55,0.38-3.7,0-5.07-0.85c-9.65-6-19.4-11.78-30.56-14.53
	c-3.46-0.85-7.09-1.05-10.65-1.4c-1.67-0.16-2.65,0.69-3.25,2.45c-4.55,13.34-5.9,26.75-1.57,40.43c0.32,1,0.03,2.65-0.63,3.42
	c-14.22,16.45-17.44,35.81-15.27,56.67c1.08,10.36,3.19,20.42,7.61,29.93c7.27,15.64,19.29,26.08,35.1,32.48
	c9.37,3.8,19.16,5.81,29.12,7.14c1.06,0.14,2.12,0.38,2.89,0.52c-2.29,3.99-4.67,7.82-6.71,11.83c-1.02,2-1.77,4.29-1.99,6.52
	c-0.35,3.46-2.13,5.03-5.3,6c-10.45,3.21-20.74,4.15-30.72-1.47c-5.46-3.07-9.56-7.55-12.8-12.84c-3.7-6.05-8.17-11.34-14.42-14.85
	c-4.82-2.71-9.94-4.64-15.59-3.51c-1.44,0.29-3.29,1.25-3.82,2.41c-0.38,0.84,0.92,2.68,1.8,3.81c0.85,1.09,2.04,1.99,3.24,2.73
	c9.66,5.94,15.31,14.99,19.49,25.15c6.65,16.15,19.36,23.62,36.15,24.59c6.58,0.38,13.24-0.62,20.17-1.01
	c0.01,0.06,0.23,0.64,0.23,1.22c0.11,8.4,0.29,16.8,0.27,25.2c-0.02,8.2-5.32,11.73-13.13,8.93c-41.79-14.98-73.22-42.1-93.89-81.29
	c-14.72-27.91-21.02-57.92-18.46-89.43c4.59-56.48,30.92-100.39,78.48-130.96c33.72-21.67,71.17-30,110.77-23.83
	c68.77,10.73,114.29,50.14,137.46,115.52c4.31,12.15,6.48,24.86,7.35,37.76c0.07,1.07,0.38,2.12,0.58,3.18
	C348.31,180.92,348.31,187.03,348.31,193.14z"/>
</svg>
