<?xml version="1.0" encoding="utf-8"?>
<!-- Generator: Adobe Illustrator 23.0.1, SVG Export Plug-In . SVG Version: 6.00 Build 0)  -->
<svg version="1.1" id="Layer_1" xmlns="http://www.w3.org/2000/svg" xmlns:xlink="http://www.w3.org/1999/xlink" x="0px" y="0px"
	 viewBox="0 0 360 360" style="enable-background:new 0 0 360 360;" xml:space="preserve">
<style type="text/css">
	.st0{fill:#FFFFFF;}
</style>
<g>
	<path class="st0" d="M179.95,338.13C88.45,338.1,14.27,263.76,14.38,172.2C14.48,80.89,88.83,6.77,180.21,6.88
		c91.38,0.1,165.47,74.35,165.42,165.75C345.57,263.99,271.33,338.15,179.95,338.13z M77.98,172.49c-0.09,0-0.19,0-0.28,0
		c0,12.47-0.08,24.95,0.04,37.42c0.05,4.73,0.24,9.51,0.96,14.18c3.1,20.35,12.98,35.88,32.49,44.18c9.05,3.85,18.63,5.44,28.4,5.48
		c25.83,0.1,51.66,0.11,77.49-0.02c5.6-0.03,11.28-0.35,16.79-1.28c20.73-3.49,36.14-14.07,43.86-34.27
		c3.22-8.43,4.56-17.25,4.57-26.26c0.02-25.5,0.06-51-0.04-76.49c-0.02-4.84-0.24-9.73-0.97-14.51
		c-3.24-21.18-13.77-36.95-34.32-44.93c-8.31-3.23-17.04-4.68-25.91-4.72c-27.37-0.12-54.75-0.15-82.12,0.01
		c-10.22,0.06-20.21,1.88-29.55,6.27c-20.71,9.71-29.88,27.19-31.23,48.94C77.21,141.76,77.98,157.15,77.98,172.49z"/>
	<path class="st0" d="M180.04,90.39c13.47,0,26.94-0.13,40.41,0.07c4.49,0.07,9.06,0.57,13.44,1.56
		c16.36,3.71,26.95,15.74,28.9,32.52c0.43,3.72,0.65,7.48,0.66,11.22c0.06,25.17,0.22,50.35-0.11,75.52
		c-0.08,6.19-1.03,12.63-3,18.47c-5.09,15.11-16.56,23.18-32.07,24.05c-19.27,1.08-38.61,0.98-57.92,1.03
		c-12.8,0.04-25.63-0.02-38.38-0.95c-19.51-1.42-32.6-14.62-34.81-34.12c-0.39-3.39-0.61-6.82-0.62-10.23
		c-0.05-25.51-0.21-51.01,0.11-76.51c0.08-5.96,1.1-12.16,3.01-17.81c5.11-15.12,16.58-22.92,32.07-24.09
		c13.41-1.01,26.91-0.78,40.37-1.07c2.65-0.06,5.3-0.01,7.95-0.01C180.04,90.17,180.04,90.28,180.04,90.39z M233.84,172.72
		c0-29.97-23.86-54.01-53.63-54.05c-30.07-0.04-54.02,23.88-54.05,53.94c-0.02,29.74,23.99,53.65,53.97,53.72
		C209.69,226.41,233.85,202.29,233.84,172.72z M234.03,108.21c-5.9,0.05-10.66,4.85-10.64,10.76c0.02,6.07,4.9,10.79,11.04,10.67
		c5.89-0.12,10.6-5.02,10.48-10.9C244.78,112.82,239.96,108.16,234.03,108.21z"/>
	<path class="st0" d="M214.73,172.52c-0.02,19.24-15.52,34.72-34.75,34.7c-19.23-0.02-34.74-15.54-34.72-34.75
		c0.02-19.23,15.53-34.72,34.76-34.7C199.27,137.8,214.75,153.29,214.73,172.52z"/>
</g>
</svg>
