<?xml version="1.0" encoding="utf-8"?>
<!-- Generator: Adobe Illustrator 23.0.1, SVG Export Plug-In . SVG Version: 6.00 Build 0)  -->
<svg version="1.1" id="Layer_1" xmlns="http://www.w3.org/2000/svg" xmlns:xlink="http://www.w3.org/1999/xlink" x="0px" y="0px"
	 viewBox="0 0 360 360" style="enable-background:new 0 0 360 360;" xml:space="preserve">
<g>
	<path d="M122.65,148.52c24.6,34.58,53.87,63.93,88.45,88.39c2.96-4.21,5.66-8.09,8.4-11.95c10.79-15.18,28.39-18.27,43.68-7.64
		c12.1,8.41,24.19,16.85,36.26,25.31c14.32,10.04,18.18,24.71,10.42,40.39c-9.5,19.2-25.84,28.19-46.49,29.97
		c-23.34,2.02-45.24-4.06-65.88-14.15c-61.87-30.25-108.06-76.41-137.72-138.66c-9.5-19.93-15.14-41.05-13.27-63.46
		c1.9-22.71,12.23-39.86,34-48.76c12.26-5.01,26.13-1.54,34,9.1c10.17,13.75,20.03,27.77,29.42,42.06
		c8.48,12.92,5.14,29.78-7.1,39.26C132.38,141.82,127.7,144.93,122.65,148.52z"/>
</g>
</svg>
