<?xml version="1.0" encoding="utf-8"?>
<!-- Generator: Adobe Illustrator 23.0.1, SVG Export Plug-In . SVG Version: 6.00 Build 0)  -->
<svg version="1.1" id="Layer_1" xmlns="http://www.w3.org/2000/svg" xmlns:xlink="http://www.w3.org/1999/xlink" x="0px" y="0px"
	 viewBox="0 0 360 360" style="enable-background:new 0 0 360 360;" xml:space="preserve">
<style type="text/css">
	.st0{fill:#F26C4F;}
</style>
<g>
	<path class="st0" d="M349.09,288.98c-1.42,6.21-3.78,11.89-8.69,16.26c-5.66,5.04-12.36,6.83-19.76,6.83
		c-73.53-0.02-147.05-0.01-220.58-0.01c-20.47,0-40.95,0.04-61.42-0.02c-11.16-0.03-19.97-4.53-24.83-14.8
		c-1.77-3.74-2.74-8.23-2.75-12.39c-0.16-69.89-0.15-139.79-0.09-209.68c0.01-16.21,11.42-27.19,28.01-27.2
		c55.04-0.02,110.07-0.01,165.11-0.01c38.97,0,77.93,0.02,116.9-0.01c9.5-0.01,17.66,3.04,23.04,11.08c2.37,3.54,3.43,7.97,5.08,12
		C349.09,143.67,349.09,216.32,349.09,288.98z M339.17,100.46c-106.32,0-212.24,0-318.32,0c0,1.47,0,2.68,0,3.88
		c0,59.66,0,119.32,0,178.98c0,12.44,6.42,18.81,18.98,18.81c93.45,0,186.91,0,280.36,0c12.69,0,18.98-6.34,18.98-19.13
		c0-59.55,0-119.1,0-178.65C339.17,103.15,339.17,101.94,339.17,100.46z M20.9,90.05c106.24,0,212.14,0,318.27,0
		c0-4.4,0-8.56,0-12.73c0-13.25-6.16-19.46-19.31-19.46c-93.21,0-186.42,0-279.63,0.01c-1.87,0-3.76,0.01-5.59,0.3
		c-7.72,1.25-13.31,7.28-13.69,15.11C20.69,78.77,20.9,84.27,20.9,90.05z"/>
	<path class="st0" d="M190.57,264.64c-2.56-0.19-5.2-0.2-7.78-0.6c-6.99-1.08-12.5-6.49-12.73-13.55
		c-0.42-13.08-0.26-26.18-0.34-39.28c-0.01-1.52,0-3.04,0-4.8c-3.76,0-7.22,0-11.26,0c0,1.61-0.08,3.21,0.01,4.8
		c1.36,23.61-5.33,27.37-26.92,26.86c-23.43-0.55-46.88-0.12-70.33-0.13c-12.64,0-18.57-5.95-18.57-18.61
		c0-12.44-0.01-24.87,0-37.31c0.02-11.31,6.2-17.56,17.58-17.58c26.86-0.04,53.71-0.04,80.57,0c11.6,0.02,17.61,6.12,17.66,17.77
		c0.01,3.85,0.07,7.71-0.02,11.56c-0.05,1.84,0.58,2.58,2.46,2.5c2.73-0.11,5.47-0.03,8.58-0.03c0.09-1.5,0.23-2.77,0.23-4.03
		c0.02-11.78,0.01-23.55,0.01-35.33c0-12.99,5.62-18.73,18.55-18.98c0.76-0.01,1.52-0.11,2.46-0.18c0.27-1.43,0.44-2.83,0.81-4.18
		c2.01-7.32,8.06-11.49,16.83-11.5c26.2-0.03,52.39-0.03,78.59,0c5.5,0.01,11.03-0.18,16.49,0.33c7.82,0.73,13.28,6.57,13.78,14.39
		c0.26,4.05,0.26,8.15,0.01,12.21c-0.5,8.21-6.44,14.13-14.66,14.61c-4.5,0.26-9.02,0.14-13.53,0.14c-26.86,0.01-53.71,0.02-80.57,0
		c-8.88-0.01-14.57-3.77-16.81-10.99c-0.06-0.21-0.18-0.4-0.24-0.62c-1.2-4.56-1.3-4.63-5.65-4.24c-3.9,0.36-6.01,2.18-6.04,6.01
		c-0.11,13.65-0.04,27.29-0.03,40.94c0,0.31,0.17,0.62,0.39,1.38c3.04,0,6.2,0.1,9.35-0.09c0.59-0.04,1.45-1.18,1.6-1.92
		c1.8-8.95,7.05-13.78,16.14-13.82c31.26-0.13,62.52-0.14,93.77,0c10.14,0.05,16.25,6.61,16.35,16.76c0.02,2.53,0.01,5.06,0,7.59
		c-0.05,10.86-6.34,17.25-17.22,17.31c-12.88,0.07-25.76,0.02-38.63,0.02c-17.72,0-35.44,0.03-53.16-0.01
		c-8.67-0.02-15.05-3.94-16.52-11.27c-0.88-4.42-2.88-5.1-6.56-4.66c-1.7,0.2-3.45,0.03-5.37,0.03c-0.08,1.47-0.19,2.54-0.2,3.61
		c-0.01,12.22-0.02,24.43,0,36.65c0.01,6.48,3.27,9.21,9.69,7.98c0.7-0.13,1.57-1.33,1.72-2.16c1.51-8.39,7.13-13.54,15.67-13.57
		c31.59-0.1,63.18-0.11,94.76,0c9.33,0.03,15.58,6.55,15.81,15.91c0.07,2.86,0.03,5.72,0.01,8.58c-0.07,10.65-6.43,17.08-17.09,17.1
		c-20.03,0.05-40.06,0.01-60.1,0.01c-9.58,0-19.15,0-28.73,0C197.85,280.3,194.19,277.57,190.57,264.64z M100.42,228.04
		c13.32,0,26.64,0.01,39.96,0c6.35-0.01,8.14-1.75,8.14-7.95c0.02-12.66,0.02-25.32,0-37.98c-0.01-5.95-1.76-7.75-7.64-7.75
		c-26.86-0.02-53.72-0.02-80.57,0c-5.81,0.01-7.71,1.95-7.72,7.75c-0.02,12.55-0.01,25.1,0,37.65c0,6.45,1.8,8.28,8.21,8.29
		C74,228.05,87.21,228.04,100.42,228.04z M253.98,270.39c15.29,0,30.59,0.02,45.88-0.01c5.54-0.01,7.52-2.05,7.57-7.6
		c0.02-1.98,0-3.96,0-5.94c-0.01-6.7-1.63-8.3-8.42-8.3c-29.6,0-59.2,0-88.8,0c-1.1,0-2.2-0.04-3.3,0.02
		c-3.86,0.21-5.79,2.09-5.99,6c-0.12,2.52-0.05,5.06-0.04,7.59c0.02,6.49,1.74,8.23,8.19,8.24
		C224.05,270.4,239.01,270.39,253.98,270.39z M254.11,153.83c15.18,0,30.37,0.01,45.55-0.01c5.89-0.01,7.73-1.86,7.76-7.66
		c0.01-1.87,0-3.74,0-5.61c-0.01-6.92-1.67-8.6-8.55-8.6c-29.82,0-59.64,0-89.46,0c-0.99,0-1.99-0.04-2.96,0.09
		c-3.53,0.47-5.3,2.29-5.5,5.83c-0.14,2.63-0.07,5.28-0.06,7.92c0.02,6.39,1.62,8.02,8,8.02
		C223.96,153.84,239.04,153.83,254.11,153.83z M254.12,190.28c-4.73,0-9.46,0-14.19,0c-10.67,0-21.35-0.04-32.02,0.02
		c-5.1,0.03-6.92,1.91-7.01,7.01c-0.05,2.97-0.09,5.95,0.05,8.91c0.18,3.57,1.95,5.37,5.49,5.82c0.98,0.12,1.98,0.1,2.96,0.1
		c29.82,0,59.63,0,89.45,0c0.88,0,1.77,0.04,2.64-0.05c3.81-0.39,5.73-2.35,5.9-6.21c0.11-2.53,0.03-5.06,0.03-7.59
		c-0.02-6.24-1.77-7.99-8.08-8C284.27,190.27,269.2,190.28,254.12,190.28z"/>
	<path class="st0" d="M190.63,79.02c-32.68,0-65.35,0-98.03,0c-5.12,0-7.49-1.55-7.52-4.87c-0.03-3.34,2.47-5.03,7.45-5.03
		c65.35,0,130.7,0,196.06,0c0.33,0,0.66,0,0.99,0c4.15,0.07,6.51,1.87,6.54,4.96c0.03,3.1-2.32,4.93-6.47,4.94
		c-20.79,0.02-41.59,0.01-62.38,0.01C215.05,79.02,202.84,79.02,190.63,79.02z"/>
	<path class="st0" d="M317.36,78.97c-1.75,0-3.51,0.1-5.25-0.02c-2.65-0.19-4.27-1.72-4.56-4.32c-0.29-2.62,0.97-4.85,3.56-5.08
		c4.32-0.39,8.72-0.39,13.04-0.02c2.59,0.22,3.9,2.46,3.64,5.04c-0.26,2.55-1.84,4.2-4.52,4.38
		C321.3,79.07,319.33,78.97,317.36,78.97z"/>
	<path class="st0" d="M36.91,78.97c-2.63-0.08-4.82-2.35-4.78-4.93c0.05-2.51,2.42-4.85,4.92-4.86c2.7-0.01,5.02,2.45,4.89,5.17
		C41.82,76.97,39.55,79.05,36.91,78.97z"/>
	<path class="st0" d="M53.09,69.2c2.61,0.09,4.76,2.35,4.73,4.98c-0.03,2.78-2.39,4.95-5.18,4.78c-2.63-0.16-4.74-2.49-4.6-5.07
		C48.18,71.34,50.58,69.12,53.09,69.2z"/>
	<path class="st0" d="M73.69,74.29c-0.08,2.62-2.32,4.74-4.95,4.69c-2.62-0.05-4.85-2.29-4.85-4.87c0-2.63,2.57-5.06,5.19-4.9
		C71.72,69.38,73.77,71.63,73.69,74.29z"/>
</g>
</svg>
