<?xml version="1.0" encoding="utf-8"?>
<!-- Generator: Adobe Illustrator 23.0.1, SVG Export Plug-In . SVG Version: 6.00 Build 0)  -->
<svg version="1.1" id="Layer_1" xmlns="http://www.w3.org/2000/svg" xmlns:xlink="http://www.w3.org/1999/xlink" x="0px" y="0px"
	 viewBox="0 0 360 360" style="enable-background:new 0 0 360 360;" xml:space="preserve">
<style type="text/css">
	.st0{fill:#F26C4F;}
</style>
<g>
	<path class="st0" d="M218.68,258.62c0,12.47,0,24.69,0,37.24c0.77,0,1.54,0,2.32,0c13.86,0,27.73-0.04,41.59,0
		c6.65,0.02,11.57,3.01,14.37,9.08c4.64,10.04-2.87,21.23-14.35,21.31c-14.07,0.09-28.14,0.01-42.2,0.01
		c-40.72,0-81.43,0-122.15,0.02c-7.63,0-13.4-3.71-15.7-10.19c-3.5-9.83,3.76-20.15,14.35-20.22c13.73-0.09,27.46-0.01,41.19-0.01
		c1,0,2,0,3.16,0c0-12.44,0-24.69,0-37.19c-1.15,0-2.15,0-3.15,0c-36.59,0-73.18-0.02-109.77,0.03c-7.3,0.01-12.93-2.78-16.12-9.44
		c-1.04-2.18-1.62-4.8-1.62-7.22c-0.09-49.17-0.06-98.34-0.06-147.51c0-14.47-0.01-28.95-0.01-43.42c0-10.31,7.01-17.39,17.29-17.39
		c67.43-0.01,134.86,0,202.29,0.01c34.02,0,68.04-0.01,102.06,0.01c8.17,0,14.61,4.63,16.58,12c0.45,1.67,0.64,3.47,0.64,5.2
		c0.04,63.17,0.01,126.34,0.07,189.51c0.01,7.16-2.46,12.77-8.88,16.32c-2.74,1.52-5.73,1.87-8.82,1.87
		c-14.74-0.03-29.49-0.01-44.23-0.01c-22.25,0-44.51,0-66.76,0C220.12,258.62,219.46,258.62,218.68,258.62z M324.79,233.87
		c0-0.96,0-1.76,0-2.56c0-56.74,0-113.49,0.01-170.23c0-2.69,0-2.69-2.78-2.69c-94.69,0-189.37,0.01-284.06,0.01
		c-2.77,0-2.78,0-2.78,2.7c0,56.81-0.01,113.62-0.01,170.43c0,0.73,0,1.46,0,2.34C131.74,233.87,228.09,233.87,324.79,233.87z"/>
	<path class="st0" d="M163,208.64c-7.02,0.06-11.84-6.43-9.67-13.28c4.76-15.01,9.63-29.98,14.46-44.97
		c6.42-19.94,12.85-39.88,19.27-59.83c1.54-4.78,5.19-7.69,9.78-7.74c4.56-0.05,8.68,2.66,9.76,7.06c0.52,2.11,0.51,4.65-0.15,6.72
		c-10.06,31.55-20.27,63.05-30.44,94.56c-1.1,3.41-2.17,6.83-3.31,10.22C171.19,205.92,167.57,208.6,163,208.64z"/>
	<path class="st0" d="M243.85,145.96c-10.9-5.06-21.32-9.9-31.74-14.74c-4.06-1.89-6.32-5.04-6.34-9.55
		c-0.02-4.25,2.01-7.4,5.84-9.21c2.99-1.41,6.01-1.17,9.01,0.23c10.9,5.09,21.82,10.14,32.73,15.21c6.07,2.82,12.16,5.59,18.19,8.49
		c5.05,2.43,7.29,7.66,5.64,12.9c-0.92,2.92-2.81,5.02-5.61,6.32c-15.75,7.32-31.49,14.66-47.24,21.99
		c-1.47,0.68-2.92,1.41-4.42,2.03c-5.3,2.17-11.01-0.05-13.3-5.13c-2.31-5.11-0.08-11.09,5.1-13.52
		c9.79-4.59,19.61-9.13,29.41-13.69C241.9,146.92,242.67,146.53,243.85,145.96z"/>
	<path class="st0" d="M116.11,146c1.08,0.51,1.91,0.92,2.75,1.3c9.63,4.46,19.25,8.92,28.88,13.37c3.89,1.8,6.22,4.73,6.47,9.07
		c0.43,7.8-7.36,12.99-14.52,9.68c-10.06-4.65-20.1-9.34-30.15-14.01c-6.92-3.22-13.84-6.45-20.77-9.65
		c-4.15-1.91-6.39-5.09-6.42-9.68c-0.03-4.69,2.24-7.92,6.45-9.88c16.85-7.83,33.7-15.66,50.55-23.5
		c5.48-2.55,11.33-0.67,13.82,4.46c2.57,5.29,0.4,11.31-5.16,13.94c-10.08,4.76-20.21,9.43-30.31,14.14
		C117.27,145.43,116.85,145.64,116.11,146z"/>
</g>
</svg>
