<?xml version="1.0" encoding="utf-8"?>
<!-- Generator: Adobe Illustrator 23.0.1, SVG Export Plug-In . SVG Version: 6.00 Build 0)  -->
<svg version="1.1" id="Layer_1" xmlns="http://www.w3.org/2000/svg" xmlns:xlink="http://www.w3.org/1999/xlink" x="0px" y="0px"
	 viewBox="0 0 360 360" style="enable-background:new 0 0 360 360;" xml:space="preserve">
<g>
	<path d="M245.24,225.67c-43.16,0-85.9,0-128.96,0c-4.09-29.92-4.06-59.72-0.03-89.73c42.99,0,85.83,0,128.99,0
		C249.3,165.77,249.27,195.58,245.24,225.67z"/>
	<path d="M120.12,113.03c6.18-26.16,14.18-51.23,31.22-72.39c4.66-5.79,10.11-10.73,16.79-14.19c8.83-4.57,17.57-4.28,26.18,0.48
		c8.72,4.82,15.19,12.05,20.74,20.14c12.44,18.12,19.56,38.48,24.78,59.62c0.5,2.03,0.93,4.08,1.45,6.35
		C200.94,113.03,160.81,113.03,120.12,113.03z"/>
	<path d="M120.15,248.46c40.6,0,80.75,0,121.23,0c-6.17,26.12-14.03,51.29-31.27,72.29c-4.02,4.9-9.04,9.24-14.3,12.8
		c-10.16,6.88-20.73,6.26-30.96-0.34c-8.65-5.58-15.04-13.33-20.51-21.88C132.07,292.12,125.24,270.83,120.15,248.46z"/>
	<path d="M268.69,225.65c0.72-15.22,1.96-30.07,1.96-44.91c0-14.84-1.24-29.69-1.95-45c0.61,0,1.72,0,2.84,0
		c22.85,0,45.69,0.04,68.54-0.05c2.52-0.01,3.59,0.63,4.24,3.23c7.04,28.06,7.07,56.06-0.16,84.09c-0.46,1.77-0.86,2.85-3.09,2.84
		c-23.78-0.08-47.57-0.05-71.35-0.07C269.26,225.78,268.81,225.67,268.69,225.65z"/>
	<path d="M93.49,136.02c-3.72,29.88-3.68,59.65,0,89.6c-1.31,0.06-2.34,0.16-3.37,0.16c-22.96,0.01-45.93-0.03-68.89,0.07
		c-2.45,0.01-3.38-0.68-3.99-3.1c-7.11-28.05-7.15-56.05,0.06-84.08c0.49-1.92,0.94-3.01,3.34-3c23.55,0.1,47.1,0.06,70.65,0.07
		C91.97,135.75,92.64,135.92,93.49,136.02z"/>
	<path d="M218.71,16.74C260.43,20.75,325.74,75,334.8,113.1c-23.32,0-46.6,0-70.24,0C256.63,77.61,245.63,43.44,218.71,16.74z"/>
	<path d="M142.78,16.77c-26.95,26.82-37.9,60.83-45.87,96.34c-23.4,0-46.71,0-70.67,0c8.81-20.09,20.89-37.5,36.31-52.6
		C84.71,38.82,121.9,18.56,142.78,16.77z"/>
	<path d="M218.75,344.75c26.84-26.65,37.84-60.7,45.82-96.31c23.45,0,46.83,0,70.25,0C325.75,286.5,259.51,341.49,218.75,344.75z"/>
	<path d="M143.33,345.28c-28.62-6.88-53.13-19.51-74.4-38.35c-18.4-16.3-32.59-35.69-42.67-58.5c23.78,0,47.08,0,70.67,0
		C104.88,283.89,115.82,318.01,143.33,345.28z"/>
</g>
</svg>
